<svg xmlns="http://www.w3.org/2000/svg" width="48" height="48" viewBox="0 0 48 48">
  <g fill="none">
    <rect width="48" height="48" fill="#FFFFFF" rx="4"/>
    <g transform="translate(8 12)">
      <path fill="#FF5F00" d="M16,12c0,4.4-3.6,8-8,8s-8-3.6-8-8s3.6-8,8-8S16,7.6,16,12z"/>
      <path fill="#EB001B" d="M8,4c-4.4,0-8,3.6-8,8s3.6,8,8,8c1.8,0,3.5-0.6,4.9-1.7C11.5,16.4,9.8,13.5,9.8,12s1.7-4.4,3.1-6.3
        C11.5,4.6,9.8,4,8,4z"/>
      <path fill="#F79E1B" d="M33,12c0,4.4-3.6,8-8,8c-1.8,0-3.5-0.6-4.9-1.7c1.4-1.9,3.1-4.8,3.1-6.3s-1.7-4.4-3.1-6.3
        c1.4-1.1,3.1-1.7,4.9-1.7C29.4,4,33,7.6,33,12z"/>
    </g>
  </g>
</svg>
