<svg xmlns="http://www.w3.org/2000/svg" width="48" height="48" viewBox="0 0 48 48">
  <g fill="none">
    <rect width="48" height="48" fill="#FFFFFF" rx="4"/>
    <g transform="translate(5 14)">
      <path fill="#E21836" d="M0,0h13v20H0V0z"/>
      <path fill="#00447C" d="M13,0h13v20H13V0z"/>
      <path fill="#007B84" d="M26,0h13v20H26V0z"/>
      <path fill="#FFF" d="M10,9.5c0,3.5-1.1,6.5-5.5,6.5c-3,0-4.5-2-4.5-5V6.4h2.2v4.3c0,1.8,0.8,3,2.4,3c2.5,0,3.3-1.5,3.3-4.3V6.4
        H10V9.5z"/>
      <path fill="#FFF" d="M12.4,15.8h2v-9.4h-2V15.8z"/>
      <path fill="#FFF" d="M22.9,11.1c0.1,1.2-0.4,3.7-3.3,3.7c-2.5,0-3.6-2-3.6-4.8c0-3.1,1.1-5.1,3.8-5.1c2.5,0,3.2,2.1,3.1,3.5h-2
        c0-0.7-0.2-1.7-1.2-1.7c-1.4,0-1.6,1.9-1.6,3.1c0,1,0.2,3.2,1.6,3.2c1.1,0,1.3-1.3,1.3-1.9H22.9z"/>
      <path fill="#FFF" d="M25.5,15.8h-2v-9.4h4.5c1.3,0,2.6,0.6,2.6,2.4c0,1.2-0.7,2-1.6,2.2v0c1.2,0.4,1.5,1.2,1.6,2.5
        c0,0.7,0,1.5,0.4,2.3h-2.3c-0.2-0.5-0.2-1.3-0.3-2.1c-0.1-0.9-0.2-1.5-1.4-1.5h-1.4V15.8z M25.5,10.5h1.7c0.8,0,1.3-0.4,1.3-1.2
        c0-0.8-0.6-1.1-1.3-1.1h-1.7V10.5z"/>
      <path fill="#FFF" d="M32.3,15.8v-9.4h3.3c2.8,0,4.3,1.5,4.3,4.6c0,3.1-1.4,4.8-4.2,4.8H32.3z M34.3,14h1.2c1.7,0,2.3-1.3,2.3-3.1
        c0-1.8-0.7-2.7-2.3-2.7h-1.2V14z"/>
    </g>
  </g>
</svg>
