<svg xmlns="http://www.w3.org/2000/svg" width="48" height="48" viewBox="0 0 48 48">
  <g fill="none">
    <rect width="48" height="48" fill="#FFFFFF" rx="4"/>
    <path fill="#2566AF" d="M20.5,24.8l2.1-12.9h3.4l-2.1,12.9H20.5z M34.8,12.2c-0.7-0.3-1.7-0.5-3-0.5c-3.3,0-5.6,1.7-5.6,4.1
      c0,1.8,1.7,2.8,2.9,3.4c1.3,0.6,1.7,1,1.7,1.5c0,0.8-1,1.2-2,1.2c-1.3,0-2-0.3-2.6-0.5l-0.4-0.2l-0.4,2.3c0.6,0.3,1.8,0.5,3,0.5
      c3.5,0,5.8-1.7,5.8-4.3c0-1.4-0.9-2.5-2.8-3.4c-1.2-0.6-1.9-1-1.9-1.5c0-0.5,0.6-1,1.8-1c1,0,1.8,0.2,2.4,0.4l0.3,0.1L34.8,12.2z
      M40.8,12h-2.6c-0.8,0-1.4,0.2-1.8,1L31,24.8h3.5c0,0,0.6-1.7,0.8-2c0.4,0,4.2,0,4.8,0c0.1,0.4,0.4,2,0.4,2h3.1L40.8,12z
      M37.1,20.1c0.3-0.8,1.5-4,1.5-4c0,0,0.3-0.8,0.5-1.4l0.3,1.2c0,0,0.7,3.4,0.9,4.1L37.1,20.1z M17.4,12l-3.3,8.3l-0.3-1.7
      c-0.6-2-2.6-4.1-4.8-5.2l3.1,11.3h3.6l5.5-12.7H17.4z M11.2,12H6l-0.1,0.4c4.1,1,6.8,3.3,7.9,6.2L12.6,13
      C12.4,12.2,11.9,12.1,11.2,12z"/>
  </g>
</svg>